<svg version="1.1" id="Layer_1" xmlns="http://www.w3.org/2000/svg" xmlns:xlink="http://www.w3.org/1999/xlink" x="0px" y="0px"
	 width="100%" viewBox="0 0 790 790" enable-background="new 0 0 790 790" xml:space="preserve">
<path fill="#000000" opacity="1.000000" stroke="none" 
	d="
M503.000000,791.000000 
	C335.333344,791.000000 168.166672,791.000000 1.000000,791.000000 
	C1.000000,527.666687 1.000000,264.333344 1.000000,1.000000 
	C264.333344,1.000000 527.666687,1.000000 791.000000,1.000000 
	C791.000000,264.333344 791.000000,527.666687 791.000000,791.000000 
	C695.166687,791.000000 599.333313,791.000000 503.000000,791.000000 
M137.240829,375.921631 
	C136.577881,398.384491 136.266373,420.866577 140.295380,443.077057 
	C145.953018,474.265686 156.132507,503.809296 172.941681,530.936707 
	C187.216263,553.973572 203.769608,575.079834 224.385681,592.739197 
	C244.557892,610.018250 266.642090,624.296936 291.031830,635.151733 
	C319.322784,647.742859 348.864105,655.145752 379.611481,656.763916 
	C401.658020,657.924133 423.717377,657.042603 445.715363,653.275208 
	C494.844482,644.861145 536.579529,622.099060 573.131409,589.179688 
	C591.354004,572.768066 606.925659,553.944885 619.773010,532.906982 
	C630.052002,516.074768 638.878296,498.541779 644.731628,479.753937 
	C654.426758,448.635071 660.495239,416.878540 656.929504,384.058044 
	C655.175903,367.917999 653.572510,351.661896 650.204041,335.819092 
	C644.346436,308.268890 633.074951,282.775208 618.050903,258.871643 
	C601.774719,232.975815 581.673828,210.673141 557.659668,191.782852 
	C536.282654,174.967072 512.600159,162.347458 487.276123,152.707718 
	C463.177979,143.534607 438.138062,138.333282 412.444611,137.156723 
	C393.525787,136.290390 374.597565,136.972778 355.737518,139.819275 
	C332.372650,143.345657 309.873322,149.548706 288.613953,159.781662 
	C252.032364,177.389771 220.194199,201.170547 194.494003,232.910782 
	C175.138000,256.815826 160.180862,283.153229 150.185379,312.187439 
	C143.185959,332.518829 139.036346,353.535583 137.240829,375.921631 
z"/>
<path fill="#2F2D2D" opacity="1.000000" stroke="none" 
	d="
M137.368195,375.473083 
	C139.036346,353.535583 143.185959,332.518829 150.185379,312.187439 
	C160.180862,283.153229 175.138000,256.815826 194.494003,232.910782 
	C220.194199,201.170547 252.032364,177.389771 288.613953,159.781662 
	C309.873322,149.548706 332.372650,143.345657 355.737518,139.819275 
	C374.597565,136.972778 393.525787,136.290390 412.444611,137.156723 
	C438.138062,138.333282 463.177979,143.534607 487.276123,152.707718 
	C512.600159,162.347458 536.282654,174.967072 557.659668,191.782852 
	C581.673828,210.673141 601.774719,232.975815 618.050903,258.871643 
	C633.074951,282.775208 644.346436,308.268890 650.204041,335.819092 
	C653.572510,351.661896 655.175903,367.917999 656.929504,384.058044 
	C660.495239,416.878540 654.426758,448.635071 644.731628,479.753937 
	C638.878296,498.541779 630.052002,516.074768 619.773010,532.906982 
	C606.925659,553.944885 591.354004,572.768066 573.131409,589.179688 
	C536.579529,622.099060 494.844482,644.861145 445.715363,653.275208 
	C423.717377,657.042603 401.658020,657.924133 379.611481,656.763916 
	C348.864105,655.145752 319.322784,647.742859 291.031830,635.151733 
	C266.642090,624.296936 244.557892,610.018250 224.385681,592.739197 
	C203.769608,575.079834 187.216263,553.973572 172.941681,530.936707 
	C156.132507,503.809296 145.953018,474.265686 140.295380,443.077057 
	C136.266373,420.866577 136.577881,398.384491 137.368195,375.473083 
M279.027832,284.564148 
	C279.346558,284.687073 279.665283,284.809998 280.275269,285.151215 
	C280.275269,285.151215 280.638184,285.123169 280.969086,285.700775 
	C281.903778,286.242889 282.838440,286.785004 283.780548,287.251434 
	C283.780548,287.251434 283.704498,287.251648 284.028290,287.808197 
	C284.935547,288.321533 285.842834,288.834869 286.788818,289.345062 
	C286.788818,289.345062 286.763306,289.365173 287.097290,289.942719 
	C300.239868,301.778351 314.129395,312.896698 326.347870,325.619781 
	C344.135101,344.141632 358.435028,365.105804 363.622437,391.037750 
	C363.771332,391.782135 364.614716,392.387543 365.169617,393.103333 
	C368.054840,384.953156 370.404938,377.001587 373.714539,369.471741 
	C375.615326,365.147156 376.077301,361.442017 373.929382,357.316895 
	C369.003265,347.856415 364.125946,338.370544 359.130707,328.169556 
	C352.988556,319.811615 346.846405,311.453644 340.450012,302.501190 
	C316.604065,276.236511 288.824280,255.249573 257.231628,239.022186 
	C247.397415,233.970901 237.459854,234.155670 227.194611,234.386612 
	C226.333328,234.406006 225.494034,235.403046 224.644531,235.945862 
	C225.410019,236.643677 226.112823,237.857269 226.950760,237.959091 
	C234.840607,238.917847 240.078644,243.506561 243.847855,250.659714 
	C243.856155,251.105118 243.864456,251.550522 243.707520,252.862686 
	C244.147720,260.788635 244.771347,268.709686 244.983307,276.641754 
	C245.271088,287.411469 245.243851,298.189545 245.109070,309.758148 
	C245.194382,310.850830 245.279694,311.943542 245.211136,313.499268 
	C245.211136,313.499268 245.368988,313.960999 245.125351,314.852844 
	C245.200760,318.221680 245.276184,321.590485 245.121094,325.872925 
	C245.200531,330.568268 245.279984,335.263641 245.130310,340.867310 
	C245.210510,344.902405 245.290695,348.937531 245.152527,353.882141 
	C245.237686,358.241364 245.322830,362.600616 245.186523,367.870178 
	C245.262573,372.236572 245.338638,376.602997 245.202682,381.876984 
	C245.286804,386.605804 245.370911,391.334595 245.260010,396.974457 
	C245.326828,402.037750 245.393646,407.101013 245.287949,413.053040 
	C245.349304,418.060059 245.410660,423.067108 245.226517,428.832428 
	C245.120926,431.491028 245.085754,434.154572 244.898087,436.807373 
	C243.874435,451.277679 240.884857,454.963348 227.021271,459.334351 
	C226.052216,459.639893 225.399490,460.948700 224.599640,461.790955 
	C225.652390,462.339874 226.702820,463.357941 227.758255,463.363159 
	C235.908630,463.403564 244.060120,463.161987 252.211014,463.173004 
	C264.853516,463.190125 277.496002,463.387634 290.138031,463.347900 
	C291.306396,463.344238 292.471161,462.183929 293.637604,461.560699 
	C292.795593,460.739136 292.030182,459.305817 291.099915,459.189331 
	C280.274506,457.833862 274.623566,451.446716 273.018494,440.153564 
	C272.819855,438.412537 272.621216,436.671478 272.612701,434.022278 
	C272.499847,427.673431 272.386993,421.324585 272.507477,414.069763 
	C272.429535,408.704498 272.351562,403.339233 272.506500,397.067291 
	C272.441254,388.089752 272.375977,379.112213 272.516876,369.234314 
	C272.426727,365.496826 272.336578,361.759308 272.485931,357.109436 
	C272.397949,351.746857 272.309967,346.384277 272.472504,340.121124 
	C272.382935,336.088623 272.293396,332.056152 272.456390,327.112274 
	C272.360504,311.892944 272.264648,296.673584 272.852631,281.279175 
	C273.551758,281.227478 274.250885,281.175812 275.228027,281.647247 
	C276.070099,282.130585 276.912140,282.613953 278.022736,283.558777 
	C278.329102,283.738586 278.635437,283.918396 278.972107,284.038818 
	C278.972107,284.038818 278.905518,284.035309 279.027832,284.564148 
M416.965363,393.260132 
	C425.308105,391.421295 433.650848,389.582458 442.253601,387.686310 
	C442.253601,385.541016 442.253601,382.985718 442.253601,378.993164 
	C432.464294,380.818787 423.258057,382.535675 413.289185,384.257080 
	C411.944489,384.790741 410.579681,385.279022 409.258514,385.865662 
	C402.487457,388.872070 395.727661,391.903839 388.272156,395.048096 
	C381.241333,401.024902 374.210510,407.001678 366.574310,413.246765 
	C365.353607,414.742188 364.132935,416.237579 362.525757,418.058136 
	C362.405518,418.363953 362.285278,418.669739 361.719788,419.283569 
	C361.445618,419.738190 361.171448,420.192780 360.450012,420.987030 
	C360.304230,421.325928 360.158478,421.664795 359.547211,422.263062 
	C359.332825,422.736115 359.118439,423.209167 358.450653,424.003387 
	C358.304626,424.336151 358.158630,424.668915 357.548401,425.351227 
	C357.329956,425.879517 357.111511,426.407837 356.349762,427.328278 
	C355.383759,429.290161 354.417786,431.252045 352.997467,433.766266 
	C350.638184,442.178833 348.278870,450.591370 345.576019,459.851440 
	C345.457520,462.547302 345.338989,465.243164 345.007538,468.800598 
	C345.704254,476.195465 346.400940,483.590332 347.036652,491.791656 
	C348.414825,496.185272 349.792969,500.578918 351.214569,505.705322 
	C356.998688,520.992798 366.354950,533.734009 378.892334,544.130676 
	C396.046021,558.355286 415.603760,566.662048 438.944397,567.929688 
	C451.505951,568.623169 463.937317,568.094910 476.750183,563.943054 
	C489.205933,560.403076 500.680023,554.995056 511.023499,546.033203 
	C513.493530,543.744385 515.963501,541.455566 518.999084,538.864136 
	C523.013184,533.585815 527.027344,528.307495 531.502991,522.540039 
	C532.709290,520.712830 533.915588,518.885620 535.482727,516.489990 
	C538.343872,509.334320 541.204956,502.178680 544.211792,494.273987 
	C548.956543,480.535645 549.401245,466.338623 548.987183,451.378815 
	C548.919495,450.926300 548.851807,450.473816 549.059998,449.118347 
	C548.967590,443.418762 548.875122,437.719147 549.051880,431.115112 
	C548.956421,425.748383 548.860962,420.381653 549.023804,414.107666 
	C548.934570,408.078705 548.845398,402.049744 549.011475,395.111725 
	C548.924561,388.749390 548.837585,382.387054 548.993469,375.118713 
	C548.914795,370.753967 548.836121,366.389221 548.991394,361.124542 
	C548.914978,357.423004 548.838562,353.721466 548.978516,349.107178 
	C548.896362,344.416016 548.814209,339.724884 548.946960,334.115417 
	C548.875610,328.726532 548.804321,323.337646 548.911804,317.034668 
	C548.838074,310.677704 548.764404,304.320740 548.885498,297.049347 
	C549.127869,283.908630 549.303833,270.766235 549.633423,257.627716 
	C549.899353,247.023666 555.223022,240.945404 565.959473,238.422348 
	C567.359741,238.093307 568.589600,237.039429 569.898376,236.321259 
	C568.427551,235.717178 566.959961,234.596100 565.485474,234.587112 
	C545.513550,234.465408 525.540710,234.487411 505.568085,234.513794 
	C504.040741,234.515808 502.513794,234.818527 500.986633,234.981461 
	C500.880341,235.579620 500.774017,236.177765 500.667694,236.775925 
	C502.440460,237.405121 504.170349,238.229065 505.993317,238.630035 
	C514.191223,240.433243 519.268066,245.338501 520.739441,253.606354 
	C521.435791,257.519318 521.723511,261.528259 521.892029,265.506592 
	C522.152405,271.652557 522.151794,277.809601 522.057434,284.886108 
	C522.133240,296.572662 522.209106,308.259186 522.087585,320.778046 
	C522.143005,322.194763 522.198425,323.611511 522.103394,325.857147 
	C522.175049,327.251831 522.246643,328.646545 522.141235,330.954224 
	C522.206543,336.000488 522.271912,341.046722 522.175110,347.005493 
	C522.206055,359.678406 522.237000,372.351349 522.096252,385.941437 
	C522.176575,390.982239 522.256897,396.023010 522.167725,401.975128 
	C522.253906,407.343933 522.340088,412.712708 522.230164,418.989532 
	C521.437500,442.517303 520.644836,466.045044 519.436401,490.230194 
	C518.568787,494.002563 517.701111,497.774933 516.380981,502.142365 
	C515.204102,505.587006 514.027222,509.031647 512.355591,513.039368 
	C512.120850,513.744751 511.886108,514.450195 511.351471,515.359131 
	C511.351471,515.359131 511.312012,515.719421 510.880005,516.203552 
	C508.159760,520.901367 505.439514,525.599182 502.144379,530.710693 
	C499.801178,533.561707 497.457977,536.412659 494.524567,539.542419 
	C486.998627,547.158203 477.761047,552.005981 467.163055,555.896912 
	C456.450470,556.684082 445.737885,557.471313 434.301361,558.012756 
	C433.542450,557.977417 432.783508,557.942139 431.329865,557.666199 
	C430.841248,557.632996 430.352631,557.599731 429.322540,557.185730 
	C411.258728,552.013000 397.375854,541.400452 387.688416,525.280884 
	C387.128387,524.348938 386.110321,523.692261 385.195190,522.138733 
	C382.270233,514.109741 379.345276,506.080750 376.403778,497.169678 
	C375.540894,491.791077 374.678009,486.412476 373.932251,480.115417 
	C373.763000,476.734863 373.593750,473.354309 373.647552,469.074219 
	C373.894745,464.790283 374.141937,460.506348 374.689972,455.622894 
	C374.760620,454.740601 374.831299,453.858276 375.259308,452.451233 
	C375.338013,451.622253 375.416748,450.793274 375.816772,449.226898 
	C377.212769,443.817139 378.608765,438.407410 380.221680,432.306488 
	C381.937164,428.940582 383.652679,425.574707 385.859589,421.785980 
	C390.218719,416.179077 394.577850,410.572144 399.553619,404.685669 
	C405.087311,400.895264 410.621002,397.104858 416.965363,393.260132 
M428.824615,301.074066 
	C431.936127,298.475555 435.047607,295.877014 438.807129,293.040222 
	C444.254913,289.104980 449.702667,285.169739 455.883942,281.187744 
	C456.557983,283.120453 457.232025,285.053131 457.755096,287.835602 
	C457.705627,295.942902 457.595947,304.050446 457.623138,312.157471 
	C457.652008,320.776184 457.810608,329.394440 457.764496,338.940216 
	C457.853882,345.966217 457.943268,352.992188 457.849243,360.936737 
	C457.831909,367.982147 457.814606,375.027527 457.494904,382.623138 
	C457.603149,384.063629 457.711426,385.504089 457.733002,387.885254 
	C457.598419,404.336151 457.463837,420.787048 456.987396,437.650452 
	C456.965546,438.696625 456.943695,439.742828 456.757874,441.499878 
	C456.647095,442.220734 456.536316,442.941559 456.044983,444.123657 
	C455.892334,445.107635 455.739655,446.091614 455.251923,447.733246 
	C452.737366,454.871277 447.103973,457.831879 440.168793,459.263092 
	C438.860657,459.533112 437.763824,460.826935 436.569519,461.648346 
	C437.941223,462.159149 439.308624,463.099670 440.685242,463.113342 
	C452.514984,463.230865 464.346375,463.178955 476.177277,463.181610 
	C485.008789,463.183624 493.840515,463.228424 502.671692,463.177795 
	C505.968994,463.158905 505.968414,463.060150 504.429962,459.511108 
	C491.799591,457.336243 487.261688,452.526642 485.866760,439.816040 
	C485.251251,434.207916 484.654907,428.597687 484.252594,422.243256 
	C484.271759,421.213165 484.290955,420.183105 484.981720,418.692657 
	C484.941803,416.798615 484.901886,414.904602 485.120483,412.114075 
	C485.041656,408.079834 484.962799,404.045624 485.138336,399.139496 
	C485.066345,396.426819 484.994354,393.714172 485.166443,390.092255 
	C485.092834,383.728394 485.019226,377.364532 485.182678,370.089081 
	C485.085541,363.395538 484.988403,356.702026 485.116486,349.106567 
	C485.006927,342.712433 484.897339,336.318329 485.063965,329.161377 
	C485.009918,320.781464 484.955872,312.401520 485.106476,303.100189 
	C485.003204,291.392426 484.899933,279.684692 484.992188,267.144806 
	C484.992188,256.457428 484.992188,245.770050 484.992188,233.114655 
	C475.295929,238.442612 466.843414,243.087158 457.724487,247.814606 
	C449.759369,252.990997 441.794220,258.167389 433.138184,263.583618 
	C428.318115,267.464264 423.498077,271.344910 418.025940,275.476410 
	C415.269318,277.934479 412.512695,280.392548 409.154968,283.120880 
	C405.808533,286.431335 402.462067,289.741760 398.528015,293.385376 
	C394.569794,297.868835 390.611603,302.352295 386.120911,307.180328 
	C384.705139,309.025055 383.289368,310.869781 381.284668,313.047424 
	C378.390808,316.883484 375.433563,320.674469 372.648071,324.587677 
	C371.960083,325.554230 371.158539,327.242767 371.548218,328.048767 
	C375.253387,335.712311 379.204193,343.257050 383.184113,351.030731 
	C388.359039,344.175842 393.241974,337.707764 398.724121,330.921326 
	C402.928802,325.979309 407.133484,321.037292 411.935425,315.836182 
	C414.681458,313.354492 417.427490,310.872803 420.807098,308.131805 
	C423.267456,305.863983 425.727814,303.596161 428.824615,301.074066 
z"/>
<path fill="#F6E099" opacity="1.000000" stroke="none" 
	d="
M359.228790,328.894989 
	C364.125946,338.370544 369.003265,347.856415 373.929382,357.316895 
	C376.077301,361.442017 375.615326,365.147156 373.714539,369.471741 
	C370.404938,377.001587 368.054840,384.953156 365.169617,393.103333 
	C364.614716,392.387543 363.771332,391.782135 363.622437,391.037750 
	C358.435028,365.105804 344.135101,344.141632 326.347870,325.619781 
	C314.129395,312.896698 300.239868,301.778351 287.360657,289.575165 
	C297.936523,286.031769 306.046265,290.866058 310.365173,298.910217 
	C314.780182,307.133392 322.703857,308.175751 329.120789,312.279266 
	C330.885529,313.407776 333.903687,312.825806 335.364441,314.129395 
	C338.656433,317.067108 341.608765,320.494873 344.200012,324.083740 
	C348.459290,329.982788 354.457611,332.103699 359.228790,328.894989 
z"/>
<path fill="#C69E4B" opacity="1.000000" stroke="none" 
	d="
M522.261841,283.961945 
	C522.151794,277.809601 522.152405,271.652557 521.892029,265.506592 
	C521.723511,261.528259 521.435791,257.519318 520.739441,253.606354 
	C519.268066,245.338501 514.191223,240.433243 505.993317,238.630035 
	C504.170349,238.229065 502.440460,237.405121 500.667694,236.775925 
	C500.774017,236.177765 500.880341,235.579620 500.986633,234.981461 
	C502.513794,234.818527 504.040741,234.515808 505.568085,234.513794 
	C525.540710,234.487411 545.513550,234.465408 565.485474,234.587112 
	C566.959961,234.596100 568.427551,235.717178 569.898376,236.321259 
	C568.589600,237.039429 567.359741,238.093307 565.959473,238.422348 
	C555.223022,240.945404 549.899353,247.023666 549.633423,257.627716 
	C549.303833,270.766235 549.127869,283.908630 548.464355,297.454285 
	C545.499756,295.678040 543.084717,293.318970 540.377258,291.365112 
	C537.596985,289.358734 534.173096,288.139893 531.682800,285.863281 
	C528.712463,283.147858 525.816956,282.553650 522.261841,283.961945 
z"/>
<path fill="#E8D08A" opacity="1.000000" stroke="none" 
	d="
M244.016708,249.996948 
	C240.078644,243.506561 234.840607,238.917847 226.950760,237.959091 
	C226.112823,237.857269 225.410019,236.643677 224.644531,235.945862 
	C225.494034,235.403046 226.333328,234.406006 227.194611,234.386612 
	C237.459854,234.155670 247.397415,233.970901 257.231628,239.022186 
	C288.824280,255.249573 316.604065,276.236511 340.348419,303.134155 
	C337.285339,307.918396 332.334930,307.956238 329.312408,305.978760 
	C324.348114,302.730988 319.783997,298.239990 316.419586,293.334625 
	C311.983154,286.866150 306.960083,282.588806 298.917206,281.872742 
	C292.987396,281.344849 288.085846,278.478180 285.974640,272.561859 
	C283.295380,265.053619 280.999817,263.040649 272.930450,263.039642 
	C267.360901,263.038940 263.747437,260.950531 262.469757,255.247681 
	C261.555084,251.165115 259.402771,248.273483 254.575073,248.826660 
	C251.057098,249.229752 247.536270,249.607758 244.016708,249.996948 
z"/>
<path fill="#B68D41" opacity="1.000000" stroke="none" 
	d="
M457.906067,286.985840 
	C457.232025,285.053131 456.557983,283.120453 455.241455,280.971191 
	C448.587860,276.815521 442.452667,273.046753 436.651398,268.819733 
	C435.168121,267.738983 434.741302,265.208313 433.829102,263.343811 
	C441.794220,258.167389 449.759369,252.990997 458.395935,247.961105 
	C460.199707,249.300201 461.187805,250.686783 462.488159,251.653351 
	C469.883057,257.150055 477.352539,262.546417 484.796692,267.976929 
	C484.899933,279.684692 485.003204,291.392426 484.610443,303.558502 
	C481.835388,303.253143 479.215759,302.969910 477.338837,301.639099 
	C470.723602,296.948792 464.363159,291.899170 457.906067,286.985840 
z"/>
<path fill="#B08840" opacity="1.000000" stroke="none" 
	d="
M432.024597,557.906860 
	C432.783508,557.942139 433.542450,557.977417 434.697266,558.485596 
	C436.071899,561.881409 437.050659,564.804443 438.029388,567.727417 
	C415.603760,566.662048 396.046021,558.355286 378.892334,544.130676 
	C366.354950,533.734009 356.998688,520.992798 351.538269,505.313416 
	C353.594116,505.082275 355.762329,504.639801 356.976196,505.517395 
	C360.540955,508.094727 363.869995,511.049194 367.028107,514.126221 
	C372.169739,519.135803 377.307678,523.935303 385.305420,522.907471 
	C386.110321,523.692261 387.128387,524.348938 387.688416,525.280884 
	C397.375854,541.400452 411.258728,552.013000 429.683838,557.648438 
	C430.704956,558.043091 431.364777,557.974976 432.024597,557.906860 
z"/>
<path fill="#EFD891" opacity="1.000000" stroke="none" 
	d="
M243.932281,250.328339 
	C247.536270,249.607758 251.057098,249.229752 254.575073,248.826660 
	C259.402771,248.273483 261.555084,251.165115 262.469757,255.247681 
	C263.747437,260.950531 267.360901,263.038940 272.930450,263.039642 
	C280.999817,263.040649 283.295380,265.053619 285.974640,272.561859 
	C288.085846,278.478180 292.987396,281.344849 298.917206,281.872742 
	C306.960083,282.588806 311.983154,286.866150 316.419586,293.334625 
	C319.783997,298.239990 324.348114,302.730988 329.312408,305.978760 
	C332.334930,307.956238 337.285339,307.918396 340.475525,303.431396 
	C346.846405,311.453644 352.988556,319.811615 359.179749,328.532288 
	C354.457611,332.103699 348.459290,329.982788 344.200012,324.083740 
	C341.608765,320.494873 338.656433,317.067108 335.364441,314.129395 
	C333.903687,312.825806 330.885529,313.407776 329.120789,312.279266 
	C322.703857,308.175751 314.780182,307.133392 310.365173,298.910217 
	C306.046265,290.866058 297.936523,286.031769 287.193665,289.286377 
	C286.763306,289.365173 286.788818,289.345062 286.696716,289.000854 
	C285.637909,288.188324 284.671204,287.720001 283.704498,287.251648 
	C283.704498,287.251648 283.780548,287.251434 283.693634,286.940094 
	C282.617218,286.126892 281.627686,285.625031 280.638184,285.123169 
	C280.638184,285.123169 280.275269,285.151215 279.963501,284.876770 
	C279.415558,284.396759 279.166840,284.207733 278.905518,284.035309 
	C278.905518,284.035309 278.972107,284.038818 278.953064,283.788818 
	C278.929993,283.352478 278.925964,283.166199 278.939240,282.649841 
	C278.964752,281.879181 278.972900,281.438568 279.164795,280.728149 
	C278.854309,278.812927 278.848572,276.269928 277.776398,275.686432 
	C274.221802,273.751862 270.268524,271.251587 266.494843,271.294739 
	C259.183929,271.378357 255.372787,268.473328 253.622803,261.658356 
	C252.662277,257.917847 250.452927,255.031067 245.972717,254.651047 
	C245.248383,253.542267 244.560577,252.769104 243.872757,251.995926 
	C243.864456,251.550522 243.856155,251.105118 243.932281,250.328339 
z"/>
<path fill="#B68D41" opacity="1.000000" stroke="none" 
	d="
M272.935303,441.027283 
	C274.623566,451.446716 280.274506,457.833862 291.099915,459.189331 
	C292.030182,459.305817 292.795593,460.739136 293.637604,461.560699 
	C292.471161,462.183929 291.306396,463.344238 290.138031,463.347900 
	C277.496002,463.387634 264.853516,463.190125 252.211014,463.173004 
	C244.060120,463.161987 235.908630,463.403564 227.758255,463.363159 
	C226.702820,463.357941 225.652390,462.339874 224.599640,461.790955 
	C225.399490,460.948700 226.052216,459.639893 227.021271,459.334351 
	C240.884857,454.963348 243.874435,451.277679 244.898087,436.807373 
	C245.085754,434.154572 245.120926,431.491028 245.718460,428.352936 
	C249.519775,424.716278 252.435883,424.887024 255.229126,428.671722 
	C257.361023,431.560333 259.982819,434.097656 262.014740,437.047455 
	C265.174255,441.634186 269.286041,443.293488 272.935303,441.027283 
z"/>
<path fill="#F6E099" opacity="1.000000" stroke="none" 
	d="
M484.049866,422.988464 
	C484.654907,428.597687 485.251251,434.207916 485.866760,439.816040 
	C487.261688,452.526642 491.799591,457.336243 504.565674,460.053162 
	C503.858276,461.041779 503.016846,461.874359 502.171814,461.878052 
	C484.756805,461.953705 467.341370,461.934998 449.926025,461.934998 
	C449.922577,461.469818 449.919159,461.004608 449.915710,460.539429 
	C459.976746,460.539429 470.037781,460.539429 480.098816,460.539429 
	C480.164429,460.035950 480.230011,459.532471 480.295624,459.029022 
	C478.847198,458.432098 477.365112,457.905029 475.956604,457.225464 
	C471.371063,455.013062 466.781494,452.804962 462.257507,450.471069 
	C460.208069,449.413757 458.309296,448.064301 456.424408,446.448730 
	C456.479614,445.254181 456.452576,444.458313 456.425507,443.662415 
	C456.536316,442.941559 456.647095,442.220734 457.033630,440.952698 
	C457.316040,439.349670 457.322662,438.293823 457.329254,437.237946 
	C457.463837,420.787048 457.598419,404.336151 457.984131,387.288086 
	C458.423096,386.422882 458.588745,386.141815 458.973358,386.193726 
	C459.480164,390.356628 459.745789,394.173492 460.006226,398.459137 
	C460.003204,402.738312 459.978088,406.548920 460.013550,410.358978 
	C460.074005,416.862579 463.710663,421.240845 470.220428,422.079590 
	C474.793365,422.668793 479.437500,422.705200 484.049866,422.988464 
z"/>
<path fill="#F9E49C" opacity="1.000000" stroke="none" 
	d="
M243.790131,252.429306 
	C244.560577,252.769104 245.248383,253.542267 246.054718,255.055161 
	C246.776749,260.378479 247.695007,264.949188 247.883667,269.549805 
	C248.033234,273.197357 249.319778,275.933380 252.703949,276.772919 
	C257.979584,278.081635 263.426544,278.686279 268.769867,279.745758 
	C269.968628,279.983459 271.039185,280.867676 272.168762,281.454254 
	C272.264648,296.673584 272.360504,311.892944 271.995911,327.425751 
	C268.123047,323.423767 264.742126,319.082947 261.290070,314.799438 
	C257.161346,309.676239 251.837982,307.704071 245.351730,308.964050 
	C245.243851,298.189545 245.271088,287.411469 244.983307,276.641754 
	C244.771347,268.709686 244.147720,260.788635 243.790131,252.429306 
z"/>
<path fill="#F6E099" opacity="1.000000" stroke="none" 
	d="
M548.719299,452.021362 
	C549.401245,466.338623 548.956543,480.535645 543.925598,494.354309 
	C543.081726,489.117584 538.117432,489.623230 534.894043,487.917572 
	C526.487915,483.469727 524.527649,484.125427 520.413513,492.589478 
	C520.193970,491.410004 520.023071,490.491394 519.852112,489.572815 
	C520.644836,466.045044 521.437500,442.517303 522.584839,418.546692 
	C523.280945,418.084595 523.622375,418.065308 523.963074,418.458710 
	C523.975708,420.246979 523.989075,421.622559 523.992493,423.464966 
	C523.996033,428.947449 524.009521,433.963104 524.015625,439.439331 
	C524.010498,445.465820 522.908630,451.427124 528.478394,455.277802 
	C531.028198,457.040649 533.953125,458.250153 536.616272,459.862030 
	C544.669495,464.736389 547.684326,464.829803 547.001831,452.752441 
	C547.003662,452.503662 547.008057,452.006104 547.293213,452.013306 
	C547.958679,452.020813 548.338989,452.021088 548.719299,452.021362 
z"/>
<path fill="#C29D51" opacity="1.000000" stroke="none" 
	d="
M457.830566,287.410706 
	C464.363159,291.899170 470.723602,296.948792 477.338837,301.639099 
	C479.215759,302.969910 481.835388,303.253143 484.508118,304.019226 
	C484.955872,312.401520 485.009918,320.781464 484.502747,329.600677 
	C481.927948,329.811127 479.736694,330.007019 477.941406,329.256226 
	C475.079224,328.059204 472.438232,326.300568 469.779572,324.656738 
	C464.910950,321.646576 457.972839,320.318939 459.005920,312.113434 
	C459.005920,315.745697 459.005920,319.377930 459.002808,323.474640 
	C458.637299,328.630371 458.274933,333.321625 457.912598,338.012909 
	C457.810608,329.394440 457.652008,320.776184 457.623138,312.157471 
	C457.595947,304.050446 457.705627,295.942902 457.830566,287.410706 
z"/>
<path fill="#BC9348" opacity="1.000000" stroke="none" 
	d="
M385.250305,522.523071 
	C377.307678,523.935303 372.169739,519.135803 367.028107,514.126221 
	C363.869995,511.049194 360.540955,508.094727 356.976196,505.517395 
	C355.762329,504.639801 353.594116,505.082275 351.516541,504.947021 
	C349.792969,500.578918 348.414825,496.185272 347.444153,491.360535 
	C354.754333,490.641754 361.569336,490.221710 367.737366,494.632690 
	C370.191589,496.387756 373.500488,496.947723 376.420319,498.051758 
	C379.345276,506.080750 382.270233,514.109741 385.250305,522.523071 
z"/>
<path fill="#D6B76C" opacity="1.000000" stroke="none" 
	d="
M457.838562,338.476562 
	C458.274933,333.321625 458.637299,328.630371 459.210022,323.827881 
	C459.615692,326.514893 460.179871,329.347504 459.922699,332.103485 
	C459.501831,336.614410 461.534210,339.218475 465.303253,341.172485 
	C468.980133,343.078705 472.373169,345.555267 476.110962,347.313446 
	C478.853485,348.603455 481.951599,349.137512 484.891235,350.008484 
	C484.988403,356.702026 485.085541,363.395538 484.652527,370.547821 
	C481.385559,370.150543 478.549866,369.523132 475.932678,368.390717 
	C470.562988,366.067291 465.310333,363.473267 459.796997,360.809509 
	C459.067200,360.424988 458.549957,360.221588 458.032654,360.018188 
	C457.943268,352.992188 457.853882,345.966217 457.838562,338.476562 
z"/>
<path fill="#B08840" opacity="1.000000" stroke="none" 
	d="
M548.733032,317.948761 
	C548.804321,323.337646 548.875610,328.726532 548.483643,334.606995 
	C545.262573,334.568115 542.310059,334.493591 539.786011,333.415863 
	C533.833435,330.874176 528.084900,327.854523 522.253845,325.028229 
	C522.198425,323.611511 522.143005,322.194763 522.493835,320.157715 
	C523.501465,313.634857 524.102783,307.732269 524.754822,301.332306 
	C532.907349,307.363190 543.290405,309.026550 548.733032,317.948761 
z"/>
<path fill="#BC9348" opacity="1.000000" stroke="none" 
	d="
M548.822388,317.491699 
	C543.290405,309.026550 532.907349,307.363190 524.754822,301.332306 
	C524.102783,307.732269 523.501465,313.634857 522.592529,319.741577 
	C522.209106,308.259186 522.133240,296.572662 522.159668,284.424011 
	C525.816956,282.553650 528.712463,283.147858 531.682800,285.863281 
	C534.173096,288.139893 537.596985,289.358734 540.377258,291.365112 
	C543.084717,293.318970 545.499756,295.678040 548.366943,297.911499 
	C548.764404,304.320740 548.838074,310.677704 548.822388,317.491699 
z"/>
<path fill="#D1AF63" opacity="1.000000" stroke="none" 
	d="
M548.750671,376.024719 
	C548.837585,382.387054 548.924561,388.749390 548.527649,395.601135 
	C545.459412,395.573639 542.647705,395.538422 540.334656,394.446564 
	C534.197388,391.549500 528.275452,388.196106 522.267883,385.024261 
	C522.237000,372.351349 522.206055,359.678406 522.546082,346.746490 
	C523.278870,348.991058 523.640625,351.494629 523.999023,354.460388 
	C524.073975,360.850464 522.381897,367.381378 530.113647,370.414185 
	C533.309814,371.667847 536.401306,373.337433 539.275940,375.221375 
	C542.408447,377.274414 545.397034,378.015503 548.750671,376.024719 
z"/>
<path fill="#E8CD85" opacity="1.000000" stroke="none" 
	d="
M457.940979,360.477478 
	C458.549957,360.221588 459.067200,360.424988 459.790222,361.278442 
	C460.004517,366.256744 459.544037,370.658264 460.204590,374.884583 
	C460.576538,377.264465 462.330231,380.622772 464.272827,381.338684 
	C470.084442,383.480438 475.732574,385.460724 480.165619,390.123230 
	C481.064606,391.068787 483.302032,390.741821 484.922363,391.001495 
	C484.994354,393.714172 485.066345,396.426819 484.690186,399.770111 
	C483.828003,402.092896 483.144043,403.770081 483.049286,405.479950 
	C482.731293,411.216522 480.938385,412.313690 476.090851,409.344269 
	C474.274689,408.231720 472.713684,406.711487 470.961090,405.484619 
	C467.337952,402.948303 463.664337,400.484131 460.011414,397.990295 
	C459.745789,394.173492 459.480164,390.356628 458.952026,385.861572 
	C458.392090,384.146545 458.094666,383.109741 457.797272,382.072937 
	C457.814606,375.027527 457.831909,367.982147 457.940979,360.477478 
z"/>
<path fill="#E8D08A" opacity="1.000000" stroke="none" 
	d="
M519.644287,489.901489 
	C520.023071,490.491394 520.193970,491.410004 520.413513,492.589478 
	C524.527649,484.125427 526.487915,483.469727 534.894043,487.917572 
	C538.117432,489.623230 543.081726,489.117584 543.852783,494.728821 
	C541.204956,502.178680 538.343872,509.334320 535.079834,516.513367 
	C530.359375,512.813110 526.058960,509.069427 521.715454,505.376343 
	C520.141052,504.037781 518.463745,502.820160 516.833435,501.547302 
	C517.701111,497.774933 518.568787,494.002563 519.644287,489.901489 
z"/>
<path fill="#DABA70" opacity="1.000000" stroke="none" 
	d="
M522.182068,385.482849 
	C528.275452,388.196106 534.197388,391.549500 540.334656,394.446564 
	C542.647705,395.538422 545.459412,395.573639 548.400024,396.055664 
	C548.845398,402.049744 548.934570,408.078705 548.560791,414.607971 
	C545.910217,415.793640 543.861755,417.768707 541.526306,415.063110 
	C536.952209,409.764252 530.232178,408.883484 524.024841,406.595459 
	C523.458435,404.496307 522.897827,402.780060 522.337219,401.063812 
	C522.256897,396.023010 522.176575,390.982239 522.182068,385.482849 
z"/>
<path fill="#E8CD85" opacity="1.000000" stroke="none" 
	d="
M398.124878,331.239685 
	C393.241974,337.707764 388.359039,344.175842 383.184113,351.030731 
	C379.204193,343.257050 375.253387,335.712311 371.548218,328.048767 
	C371.158539,327.242767 371.960083,325.554230 372.648071,324.587677 
	C375.433563,320.674469 378.390808,316.883484 381.622681,313.257935 
	C387.348755,319.392212 392.736816,325.315948 398.124878,331.239685 
z"/>
<path fill="#C29D51" opacity="1.000000" stroke="none" 
	d="
M376.412048,497.610718 
	C373.500488,496.947723 370.191589,496.387756 367.737366,494.632690 
	C361.569336,490.221710 354.754333,490.641754 347.474609,490.957275 
	C346.400940,483.590332 345.704254,476.195465 345.576599,468.392944 
	C350.373169,467.379395 352.798340,470.171783 355.326721,472.816376 
	C360.359619,478.080597 366.829834,480.144684 373.815125,481.033875 
	C374.678009,486.412476 375.540894,491.791077 376.412048,497.610718 
z"/>
<path fill="#BC9348" opacity="1.000000" stroke="none" 
	d="
M484.894409,267.560852 
	C477.352539,262.546417 469.883057,257.150055 462.488159,251.653351 
	C461.187805,250.686783 460.199707,249.300201 458.729126,247.919647 
	C466.843414,243.087158 475.295929,238.442612 484.992188,233.114655 
	C484.992188,245.770050 484.992188,256.457428 484.894409,267.560852 
z"/>
<path fill="#CEAB5E" opacity="1.000000" stroke="none" 
	d="
M485.003845,349.557526 
	C481.951599,349.137512 478.853485,348.603455 476.110962,347.313446 
	C472.373169,345.555267 468.980133,343.078705 465.303253,341.172485 
	C461.534210,339.218475 459.501831,336.614410 459.922699,332.103485 
	C460.179871,329.347504 459.615692,326.514893 459.213165,323.363464 
	C459.005920,319.377930 459.005920,315.745697 459.005920,312.113434 
	C457.972839,320.318939 464.910950,321.646576 469.779572,324.656738 
	C472.438232,326.300568 475.079224,328.059204 477.941406,329.256226 
	C479.736694,330.007019 481.927948,329.811127 484.364655,329.982086 
	C484.897339,336.318329 485.006927,342.712433 485.003845,349.557526 
z"/>
<path fill="#CAA659" opacity="1.000000" stroke="none" 
	d="
M373.873718,480.574646 
	C366.829834,480.144684 360.359619,478.080597 355.326721,472.816376 
	C352.798340,470.171783 350.373169,467.379395 345.683105,467.962158 
	C345.338989,465.243164 345.457520,462.547302 346.074127,459.285400 
	C347.844177,455.997406 349.116089,453.275452 350.649475,449.993988 
	C353.875824,452.304382 356.984558,454.137909 359.615967,456.502625 
	C364.067505,460.502991 371.717072,461.499542 372.103607,469.456848 
	C372.113007,469.650085 372.965302,469.802368 373.424500,469.973755 
	C373.593750,473.354309 373.763000,476.734863 373.873718,480.574646 
z"/>
<path fill="#BC9348" opacity="1.000000" stroke="none" 
	d="
M433.483643,263.463715 
	C434.741302,265.208313 435.168121,267.738983 436.651398,268.819733 
	C442.452667,273.046753 448.587860,276.815521 454.874695,280.994568 
	C449.702667,285.169739 444.254913,289.104980 438.293884,292.838379 
	C435.592041,284.994049 429.240234,282.018585 422.795746,278.999298 
	C421.186951,278.245544 420.038208,276.509888 418.678009,275.225555 
	C423.498077,271.344910 428.318115,267.464264 433.483643,263.463715 
z"/>
<path fill="#E0C379" opacity="1.000000" stroke="none" 
	d="
M485.044434,390.546875 
	C483.302032,390.741821 481.064606,391.068787 480.165619,390.123230 
	C475.732574,385.460724 470.084442,383.480438 464.272827,381.338684 
	C462.330231,380.622772 460.576538,377.264465 460.204590,374.884583 
	C459.544037,370.658264 460.004517,366.256744 460.002747,361.459534 
	C465.310333,363.473267 470.562988,366.067291 475.932678,368.390717 
	C478.549866,369.523132 481.385559,370.150543 484.533997,371.003601 
	C485.019226,377.364532 485.092834,383.728394 485.044434,390.546875 
z"/>
<path fill="#D1AF63" opacity="1.000000" stroke="none" 
	d="
M373.536011,469.523987 
	C372.965302,469.802368 372.113007,469.650085 372.103607,469.456848 
	C371.717072,461.499542 364.067505,460.502991 359.615967,456.502625 
	C356.984558,454.137909 353.875824,452.304382 350.649475,449.993988 
	C349.116089,453.275452 347.844177,455.997406 346.245911,458.861633 
	C348.278870,450.591370 350.638184,442.178833 353.474670,433.801453 
	C361.133057,439.212555 368.314240,444.588409 375.495483,449.964294 
	C375.416748,450.793274 375.338013,451.622253 374.807770,452.846985 
	C374.367188,454.235992 374.378143,455.229187 374.389130,456.222412 
	C374.141937,460.506348 373.894745,464.790283 373.536011,469.523987 
z"/>
<path fill="#E8CD85" opacity="1.000000" stroke="none" 
	d="
M524.023010,438.978760 
	C524.009521,433.963104 523.996033,428.947449 524.366089,423.492615 
	C531.497375,426.562897 538.245056,430.072388 545.431641,433.810120 
	C546.010742,433.500702 547.396667,432.760132 548.782654,432.019592 
	C548.875122,437.719147 548.967590,443.418762 548.665039,449.685699 
	C547.849487,450.837402 547.428772,451.421753 547.008057,452.006104 
	C547.008057,452.006104 547.003662,452.503662 546.620483,452.743408 
	C544.157288,452.102997 541.878479,451.519897 540.034485,450.286682 
	C534.604919,446.655579 529.347656,442.766724 524.023010,438.978760 
z"/>
<path fill="#EFD891" opacity="1.000000" stroke="none" 
	d="
M245.230408,309.361084 
	C251.837982,307.704071 257.161346,309.676239 261.290070,314.799438 
	C264.742126,319.082947 268.123047,323.423767 271.869629,327.881439 
	C272.293396,332.056152 272.382935,336.088623 272.014648,340.440460 
	C270.446594,339.586304 269.473846,338.229797 268.200714,337.273163 
	C264.174896,334.248138 259.869446,331.575256 255.993912,328.376343 
	C252.796570,325.737183 249.814911,323.279388 245.351593,324.959320 
	C245.276184,321.590485 245.200760,318.221680 245.373535,314.349060 
	C245.730225,313.752930 245.838699,313.660553 245.947174,313.568207 
	C245.753128,313.390869 245.559067,313.213562 245.364990,313.036224 
	C245.279694,311.943542 245.194382,310.850830 245.230408,309.361084 
z"/>
<path fill="#C29D51" opacity="1.000000" stroke="none" 
	d="
M272.274139,414.975739 
	C272.386993,421.324585 272.499847,427.673431 272.187531,434.401001 
	C270.828430,432.281555 270.444275,429.336823 268.850555,427.374512 
	C265.089661,422.743958 260.922211,418.402832 256.591553,414.289612 
	C253.512939,411.365448 249.833817,409.363953 245.460480,412.164307 
	C245.393646,407.101013 245.326828,402.037750 245.755554,396.450745 
	C247.390305,395.738312 248.892410,394.984833 249.612946,395.447754 
	C257.281982,400.375214 266.594330,403.433228 270.237885,413.108429 
	C270.527466,413.877411 271.577515,414.360016 272.274139,414.975739 
z"/>
<path fill="#CAA659" opacity="1.000000" stroke="none" 
	d="
M467.971985,555.961914 
	C477.761047,552.005981 486.998627,547.158203 494.971252,539.694458 
	C497.110077,543.614136 499.935608,545.248230 504.134613,545.085999 
	C506.206207,545.005859 508.313049,545.837708 510.403961,546.256897 
	C500.680023,554.995056 489.205933,560.403076 476.225952,563.643127 
	C474.960724,558.960510 471.170074,557.771484 467.971985,555.961914 
z"/>
<path fill="#E8CD85" opacity="1.000000" stroke="none" 
	d="
M456.342163,446.847382 
	C458.309296,448.064301 460.208069,449.413757 462.257507,450.471069 
	C466.781494,452.804962 471.371063,455.013062 475.956604,457.225464 
	C477.365112,457.905029 478.847198,458.432098 480.295624,459.029022 
	C480.230011,459.532471 480.164429,460.035950 480.098816,460.539429 
	C470.037781,460.539429 459.976746,460.539429 449.915710,460.539429 
	C449.919159,461.004608 449.922577,461.469818 449.926025,461.934998 
	C467.341370,461.934998 484.756805,461.953705 502.171814,461.878052 
	C503.016846,461.874359 503.858276,461.041779 504.887970,460.244141 
	C505.968414,463.060150 505.968994,463.158905 502.671692,463.177795 
	C493.840515,463.228424 485.008789,463.183624 476.177277,463.181610 
	C464.346375,463.178955 452.514984,463.230865 440.685242,463.113342 
	C439.308624,463.099670 437.941223,462.159149 436.569519,461.648376 
	C437.763824,460.826935 438.860657,459.533112 440.168793,459.263092 
	C447.103973,457.831879 452.737366,454.871277 455.555420,447.418762 
	C456.025177,447.028412 456.186279,446.942780 456.342163,446.847382 
z"/>
<path fill="#E0C379" opacity="1.000000" stroke="none" 
	d="
M548.917236,431.567352 
	C547.396667,432.760132 546.010742,433.500702 545.431641,433.810120 
	C538.245056,430.072388 531.497375,426.562897 524.376038,423.025757 
	C523.989075,421.622559 523.975708,420.246979 523.977783,417.995483 
	C524.005676,413.739166 524.018188,410.358765 524.030701,406.978333 
	C530.232178,408.883484 536.952209,409.764252 541.526306,415.063110 
	C543.861755,417.768707 545.910217,415.793640 548.431641,415.061615 
	C548.860962,420.381653 548.956421,425.748383 548.917236,431.567352 
z"/>
<path fill="#CAA659" opacity="1.000000" stroke="none" 
	d="
M272.390808,414.522766 
	C271.577515,414.360016 270.527466,413.877411 270.237885,413.108429 
	C266.594330,403.433228 257.281982,400.375214 249.612946,395.447754 
	C248.892410,394.984833 247.390305,395.738312 245.853058,395.995239 
	C245.370911,391.334595 245.286804,386.605804 245.652679,381.389038 
	C247.838562,380.935120 250.240448,380.240936 251.202621,381.120941 
	C257.628479,386.997986 267.216248,389.035339 271.368958,397.646057 
	C271.468628,397.852722 271.963196,397.868927 272.273621,397.973999 
	C272.351562,403.339233 272.429535,408.704498 272.390808,414.522766 
z"/>
<path fill="#E8D08A" opacity="1.000000" stroke="none" 
	d="
M398.936981,404.965240 
	C394.577850,410.572144 390.218719,416.179077 385.331848,421.776367 
	C382.161407,419.585938 379.151794,417.717163 376.966370,415.147491 
	C374.058716,411.728577 370.967896,411.326141 367.179688,412.978485 
	C374.210510,407.001678 381.241333,401.024902 388.850159,395.233948 
	C392.597748,398.601593 395.767365,401.783417 398.936981,404.965240 
z"/>
<path fill="#D6B76C" opacity="1.000000" stroke="none" 
	d="
M420.173523,308.391113 
	C417.427490,310.872803 414.681458,313.354492 411.228577,315.939392 
	C402.565582,312.973633 394.609497,309.904694 386.653381,306.835724 
	C390.611603,302.352295 394.569794,297.868835 399.175659,293.242676 
	C400.974274,293.675568 402.212830,294.124390 403.261169,294.848602 
	C407.942780,298.082672 412.624847,301.322113 417.180634,304.728271 
	C418.406097,305.644470 419.188019,307.153961 420.173523,308.391113 
z"/>
<path fill="#D1AF63" opacity="1.000000" stroke="none" 
	d="
M272.390076,397.520630 
	C271.963196,397.868927 271.468628,397.852722 271.368958,397.646057 
	C267.216248,389.035339 257.628479,386.997986 251.202621,381.120941 
	C250.240448,380.240936 247.838562,380.935120 245.758698,380.935242 
	C245.338638,376.602997 245.262573,372.236572 245.642578,367.381348 
	C247.860703,366.919250 250.083481,366.261566 251.308517,367.086182 
	C258.152893,371.693237 264.755981,376.658691 271.745605,381.721954 
	C271.745605,378.051392 271.745605,374.447144 271.830811,370.717773 
	C272.016449,370.413208 272.148010,370.260529 272.310730,370.134674 
	C272.375977,379.112213 272.441254,388.089752 272.390076,397.520630 
z"/>
<path fill="#BC9348" opacity="1.000000" stroke="none" 
	d="
M245.374207,412.608673 
	C249.833817,409.363953 253.512939,411.365448 256.591553,414.289612 
	C260.922211,418.402832 265.089661,422.743958 268.850555,427.374512 
	C270.444275,429.336823 270.828430,432.281555 272.092468,434.855103 
	C272.621216,436.671478 272.819855,438.412537 272.976898,440.590424 
	C269.286041,443.293488 265.174255,441.634186 262.014740,437.047455 
	C259.982819,434.097656 257.361023,431.560333 255.229126,428.671722 
	C252.435883,424.887024 249.519775,424.716278 245.841217,427.973785 
	C245.410660,423.067108 245.349304,418.060059 245.374207,412.608673 
z"/>
<path fill="#EFD891" opacity="1.000000" stroke="none" 
	d="
M460.006256,398.459106 
	C463.664337,400.484131 467.337952,402.948303 470.961090,405.484619 
	C472.713684,406.711487 474.274689,408.231720 476.090851,409.344269 
	C480.938385,412.313690 482.731293,411.216522 483.049286,405.479950 
	C483.144043,403.770081 483.828003,402.092896 484.562988,400.206055 
	C484.962799,404.045624 485.041656,408.079834 484.689056,412.735138 
	C484.275116,415.288483 484.292603,417.220734 484.310120,419.153015 
	C484.290955,420.183105 484.271759,421.213165 484.151245,422.615845 
	C479.437500,422.705200 474.793365,422.668793 470.220428,422.079590 
	C463.710663,421.240845 460.074005,416.862579 460.013550,410.358978 
	C459.978088,406.548920 460.003204,402.738312 460.006256,398.459106 
z"/>
<path fill="#BC9348" opacity="1.000000" stroke="none" 
	d="
M522.178589,325.442688 
	C528.084900,327.854523 533.833435,330.874176 539.786011,333.415863 
	C542.310059,334.493591 545.262573,334.568115 548.376160,335.066162 
	C548.814209,339.724884 548.896362,344.416016 548.513245,349.595825 
	C546.438721,350.171143 544.616333,350.791504 543.258240,350.249237 
	C538.230957,348.241760 533.365173,345.832275 528.422241,343.610474 
	C525.263062,342.190430 523.679749,340.060211 523.881287,336.335754 
	C523.992981,334.271820 522.879456,332.141571 522.318237,330.041229 
	C522.246643,328.646545 522.175049,327.251831 522.178589,325.442688 
z"/>
<path fill="#E8CD85" opacity="1.000000" stroke="none" 
	d="
M245.236343,325.416138 
	C249.814911,323.279388 252.796570,325.737183 255.993912,328.376343 
	C259.869446,331.575256 264.174896,334.248138 268.200714,337.273163 
	C269.473846,338.229797 270.446594,339.586304 271.889404,340.890747 
	C272.309967,346.384277 272.397949,351.746857 272.014832,357.412231 
	C271.082611,357.063751 270.159698,356.353912 270.233643,355.770508 
	C270.813324,351.198181 267.750244,350.024109 264.352539,348.606750 
	C261.029846,347.220703 257.515411,345.624481 254.984161,343.186951 
	C252.065338,340.376221 249.275421,338.959259 245.359421,339.958984 
	C245.279984,335.263641 245.200531,330.568268 245.236343,325.416138 
z"/>
<path fill="#DABA70" opacity="1.000000" stroke="none" 
	d="
M375.656128,449.595581 
	C368.314240,444.588409 361.133057,439.212555 353.701843,433.525269 
	C354.417786,431.252045 355.383759,429.290161 356.997498,427.105438 
	C365.214417,423.980377 375.351624,426.752747 380.004761,432.997650 
	C378.608765,438.407410 377.212769,443.817139 375.656128,449.595581 
z"/>
<path fill="#DABA70" opacity="1.000000" stroke="none" 
	d="
M271.745605,370.842865 
	C271.745605,374.447144 271.745605,378.051392 271.745605,381.721954 
	C264.755981,376.658691 258.152893,371.693237 251.308517,367.086182 
	C250.083481,366.261566 247.860703,366.919250 245.753296,366.926178 
	C245.322830,362.600616 245.237686,358.241364 245.609207,353.394104 
	C247.820679,352.942719 250.254044,352.243195 251.220932,353.134552 
	C257.872040,359.265778 268.400299,360.938416 271.745605,370.842865 
z"/>
<path fill="#D6B76C" opacity="1.000000" stroke="none" 
	d="
M531.041504,523.029175 
	C527.027344,528.307495 523.013184,533.585815 518.333618,538.923523 
	C513.580017,537.329407 509.409729,535.844788 505.452850,533.921204 
	C504.240814,533.331970 503.614075,531.538818 502.719299,530.296997 
	C505.439514,525.599182 508.159760,520.901367 511.448700,516.130249 
	C516.328979,520.440796 521.514954,522.484009 527.694580,522.135620 
	C528.789978,522.073853 529.924866,522.713501 531.041504,523.029175 
z"/>
<path fill="#E0C379" opacity="1.000000" stroke="none" 
	d="
M386.387146,307.008026 
	C394.609497,309.904694 402.565582,312.973633 410.929932,316.068909 
	C407.133484,321.037292 402.928802,325.979309 398.424500,331.080505 
	C392.736816,325.315948 387.348755,319.392212 381.917114,313.091492 
	C383.289368,310.869781 384.705139,309.025055 386.387146,307.008026 
z"/>
<path fill="#E0C379" opacity="1.000000" stroke="none" 
	d="
M271.830811,370.717773 
	C268.400299,360.938416 257.872040,359.265778 251.220932,353.134552 
	C250.254044,352.243195 247.820679,352.942719 245.718384,352.939331 
	C245.290695,348.937531 245.210510,344.902405 245.244873,340.413147 
	C249.275421,338.959259 252.065338,340.376221 254.984161,343.186951 
	C257.515411,345.624481 261.029846,347.220703 264.352539,348.606750 
	C267.750244,350.024109 270.813324,351.198181 270.233643,355.770508 
	C270.159698,356.353912 271.082611,357.063751 271.895081,357.868408 
	C272.336578,361.759308 272.426727,365.496826 272.413818,369.684509 
	C272.148010,370.260529 272.016449,370.413208 271.830811,370.717773 
z"/>
<path fill="#CAA659" opacity="1.000000" stroke="none" 
	d="
M548.872070,375.571716 
	C545.397034,378.015503 542.408447,377.274414 539.275940,375.221375 
	C536.401306,373.337433 533.309814,371.667847 530.113647,370.414185 
	C522.381897,367.381378 524.073975,360.850464 524.369263,354.492065 
	C529.789429,356.191681 534.761414,358.531372 539.912659,360.368011 
	C542.703064,361.362915 545.799194,361.500275 548.757446,362.024475 
	C548.836121,366.389221 548.914795,370.753967 548.872070,375.571716 
z"/>
<path fill="#BC9348" opacity="1.000000" stroke="none" 
	d="
M467.567505,555.929443 
	C471.170074,557.771484 474.960724,558.960510 475.844360,563.663208 
	C463.937317,568.094910 451.505951,568.623169 438.486877,567.828552 
	C437.050659,564.804443 436.071899,561.881409 435.059235,558.608521 
	C445.737885,557.471313 456.450470,556.684082 467.567505,555.929443 
z"/>
<path fill="#CEAB5E" opacity="1.000000" stroke="none" 
	d="
M420.490326,308.261475 
	C419.188019,307.153961 418.406097,305.644470 417.180634,304.728271 
	C412.624847,301.322113 407.942780,298.082672 403.261169,294.848602 
	C402.212830,294.124390 400.974274,293.675568 399.469452,293.076111 
	C402.462067,289.741760 405.808533,286.431335 409.695007,283.240723 
	C412.557861,285.440338 414.629944,287.940125 417.257782,289.508972 
	C422.134430,292.420319 426.136200,295.911377 428.188171,301.328369 
	C425.727814,303.596161 423.267456,305.863983 420.490326,308.261475 
z"/>
<path fill="#F6E099" opacity="1.000000" stroke="none" 
	d="
M272.510681,281.366699 
	C271.039185,280.867676 269.968628,279.983459 268.769867,279.745758 
	C263.426544,278.686279 257.979584,278.081635 252.703949,276.772919 
	C249.319778,275.933380 248.033234,273.197357 247.883667,269.549805 
	C247.695007,264.949188 246.776749,260.378479 246.091248,255.390762 
	C250.452927,255.031067 252.662277,257.917847 253.622803,261.658356 
	C255.372787,268.473328 259.183929,271.378357 266.494843,271.294739 
	C270.268524,271.251587 274.221802,273.751862 277.776398,275.686432 
	C278.848572,276.269928 278.854309,278.812927 278.859680,280.673096 
	C277.230560,280.966614 276.090302,281.045349 274.950012,281.124146 
	C274.250885,281.175812 273.551758,281.227478 272.510681,281.366699 
z"/>
<path fill="#C29D51" opacity="1.000000" stroke="none" 
	d="
M428.506409,301.201233 
	C426.136200,295.911377 422.134430,292.420319 417.257782,289.508972 
	C414.629944,287.940125 412.557861,285.440338 409.995544,283.105621 
	C412.512695,280.392548 415.269318,277.934479 418.351990,275.350983 
	C420.038208,276.509888 421.186951,278.245544 422.795746,278.999298 
	C429.240234,282.018585 435.592041,284.994049 437.969879,292.957520 
	C435.047607,295.877014 431.936127,298.475555 428.506409,301.201233 
z"/>
<path fill="#C29D51" opacity="1.000000" stroke="none" 
	d="
M548.874390,361.574493 
	C545.799194,361.500275 542.703064,361.362915 539.912659,360.368011 
	C534.761414,358.531372 529.789429,356.191681 524.372559,354.029877 
	C523.640625,351.494629 523.278870,348.991058 522.627136,346.290222 
	C522.271912,341.046722 522.206543,336.000488 522.229736,330.497742 
	C522.879456,332.141571 523.992981,334.271820 523.881287,336.335754 
	C523.679749,340.060211 525.263062,342.190430 528.422241,343.610474 
	C533.365173,345.832275 538.230957,348.241760 543.258240,350.249237 
	C544.616333,350.791504 546.438721,350.171143 548.405029,350.052185 
	C548.838562,353.721466 548.914978,357.423004 548.874390,361.574493 
z"/>
<path fill="#E0C379" opacity="1.000000" stroke="none" 
	d="
M380.113220,432.652069 
	C375.351624,426.752747 365.214417,423.980377 357.269104,426.909363 
	C357.111511,426.407837 357.329956,425.879517 357.972687,424.988342 
	C358.566010,424.311035 358.735016,423.996643 358.904053,423.682220 
	C359.118439,423.209167 359.332825,422.736115 359.971863,421.938721 
	C360.563416,421.292053 360.730316,420.969727 360.897247,420.647400 
	C361.171448,420.192780 361.445618,419.738190 362.106720,418.948059 
	C362.692505,418.347626 362.832031,418.054443 362.912231,417.733032 
	C364.132935,416.237579 365.353607,414.742188 366.877014,413.112610 
	C370.967896,411.326141 374.058716,411.728577 376.966370,415.147491 
	C379.151794,417.717163 382.161407,419.585938 385.086151,421.987793 
	C383.652679,425.574707 381.937164,428.940582 380.113220,432.652069 
z"/>
<path fill="#E0C379" opacity="1.000000" stroke="none" 
	d="
M531.272217,522.784607 
	C529.924866,522.713501 528.789978,522.073853 527.694580,522.135620 
	C521.514954,522.484009 516.328979,520.440796 511.664703,515.888184 
	C511.312012,515.719421 511.351471,515.359131 511.761536,514.978394 
	C512.397827,513.890503 512.624084,513.183411 512.850342,512.476257 
	C514.027222,509.031647 515.204102,505.587006 516.607178,501.844849 
	C518.463745,502.820160 520.141052,504.037781 521.715454,505.376343 
	C526.058960,509.069427 530.359375,512.813110 534.899353,516.797607 
	C533.915588,518.885620 532.709290,520.712830 531.272217,522.784607 
z"/>
<path fill="#E8D08A" opacity="1.000000" stroke="none" 
	d="
M414.051819,384.252563 
	C423.258057,382.535675 432.464294,380.818787 442.253601,378.993164 
	C442.253601,382.985718 442.253601,385.541016 442.253601,387.686310 
	C433.650848,389.582458 425.308105,391.421295 416.469788,392.935547 
	C415.333405,389.824860 414.692596,387.038727 414.051819,384.252563 
z"/>
<path fill="#F6E099" opacity="1.000000" stroke="none" 
	d="
M413.670471,384.254822 
	C414.692596,387.038727 415.333405,389.824860 416.064453,392.962708 
	C410.621002,397.104858 405.087311,400.895264 399.245300,404.825439 
	C395.767365,401.783417 392.597748,398.601593 389.196014,395.173279 
	C395.727661,391.903839 402.487457,388.872070 409.258514,385.865662 
	C410.579681,385.279022 411.944489,384.790741 413.670471,384.254822 
z"/>
<path fill="#D1AF63" opacity="1.000000" stroke="none" 
	d="
M502.431824,530.503845 
	C503.614075,531.538818 504.240814,533.331970 505.452850,533.921204 
	C509.409729,535.844788 513.580017,537.329407 518.050903,539.074829 
	C515.963501,541.455566 513.493530,543.744385 510.713745,546.145020 
	C508.313049,545.837708 506.206207,545.005859 504.134613,545.085999 
	C499.935608,545.248230 497.110077,543.614136 495.266388,539.555054 
	C497.457977,536.412659 499.801178,533.561707 502.431824,530.503845 
z"/>
<path fill="#E8CD85" opacity="1.000000" stroke="none" 
	d="
M524.024841,406.595459 
	C524.018188,410.358765 524.005676,413.739166 523.978516,417.582825 
	C523.622375,418.065308 523.280945,418.084595 522.682861,418.092712 
	C522.340088,412.712708 522.253906,407.343933 522.252441,401.519470 
	C522.897827,402.780060 523.458435,404.496307 524.024841,406.595459 
z"/>
<path fill="#F6E099" opacity="1.000000" stroke="none" 
	d="
M484.645935,418.922852 
	C484.292603,417.220734 484.275116,415.288483 484.559814,413.183380 
	C484.901886,414.904602 484.941803,416.798615 484.645935,418.922852 
z"/>
<path fill="#C29D51" opacity="1.000000" stroke="none" 
	d="
M457.646088,382.348022 
	C458.094666,383.109741 458.392090,384.146545 458.710815,385.515503 
	C458.588745,386.141815 458.423096,386.422882 458.027466,386.817749 
	C457.711426,385.504089 457.603149,384.063629 457.646088,382.348022 
z"/>
<path fill="#F9E49C" opacity="1.000000" stroke="none" 
	d="
M275.089020,281.385681 
	C276.090302,281.045349 277.230560,280.966614 278.675964,280.942932 
	C278.972900,281.438568 278.964752,281.879181 278.647705,282.674866 
	C278.143982,283.052399 277.949097,283.074829 277.754211,283.097290 
	C276.912140,282.613953 276.070099,282.130585 275.089020,281.385681 
z"/>
<path fill="#C29D51" opacity="1.000000" stroke="none" 
	d="
M457.158325,437.444214 
	C457.322662,438.293823 457.316040,439.349670 457.115631,440.597290 
	C456.943695,439.742828 456.965546,438.696625 457.158325,437.444214 
z"/>
<path fill="#C29D51" opacity="1.000000" stroke="none" 
	d="
M456.424408,446.448730 
	C456.186279,446.942780 456.025177,447.028412 455.722961,447.089905 
	C455.739655,446.091614 455.892334,445.107635 456.235229,443.893036 
	C456.452576,444.458313 456.479614,445.254181 456.424408,446.448730 
z"/>
<path fill="#DABA70" opacity="1.000000" stroke="none" 
	d="
M374.539551,455.922668 
	C374.378143,455.229187 374.367188,454.235992 374.629089,453.109375 
	C374.831299,453.858276 374.760620,454.740601 374.539551,455.922668 
z"/>
<path fill="#F6E099" opacity="1.000000" stroke="none" 
	d="
M280.803650,285.411987 
	C281.627686,285.625031 282.617218,286.126892 283.689941,286.977936 
	C282.838440,286.785004 281.903778,286.242889 280.803650,285.411987 
z"/>
<path fill="#F6E099" opacity="1.000000" stroke="none" 
	d="
M283.866394,287.529907 
	C284.671204,287.720001 285.637909,288.188324 286.677368,289.002441 
	C285.842834,288.834869 284.935547,288.321533 283.866394,287.529907 
z"/>
<path fill="#EFD891" opacity="1.000000" stroke="none" 
	d="
M547.293213,452.013306 
	C547.428772,451.421753 547.849487,450.837402 548.527161,450.137177 
	C548.851807,450.473816 548.919495,450.926300 548.853271,451.700104 
	C548.338989,452.021088 547.958679,452.020813 547.293213,452.013306 
z"/>
<path fill="#BC9348" opacity="1.000000" stroke="none" 
	d="
M431.677246,557.786499 
	C431.364777,557.974976 430.704956,558.043091 429.954590,557.838867 
	C430.352631,557.599731 430.841248,557.632996 431.677246,557.786499 
z"/>
<path fill="#F9E49C" opacity="1.000000" stroke="none" 
	d="
M245.288071,313.267761 
	C245.559067,313.213562 245.753128,313.390869 245.947174,313.568207 
	C245.838699,313.660553 245.730225,313.752930 245.495361,313.903137 
	C245.368988,313.960999 245.211136,313.499268 245.288071,313.267761 
z"/>
<path fill="#D6B76C" opacity="1.000000" stroke="none" 
	d="
M512.602966,512.757812 
	C512.624084,513.183411 512.397827,513.890503 511.911469,514.876587 
	C511.886108,514.450195 512.120850,513.744751 512.602966,512.757812 
z"/>
<path fill="#F6E099" opacity="1.000000" stroke="none" 
	d="
M277.888489,283.328033 
	C277.949097,283.074829 278.143982,283.052399 278.630371,283.004944 
	C278.925964,283.166199 278.929993,283.352478 278.937927,283.818512 
	C278.635437,283.918396 278.329102,283.738586 277.888489,283.328033 
z"/>
<path fill="#F6E099" opacity="1.000000" stroke="none" 
	d="
M278.966675,284.299744 
	C279.166840,284.207733 279.415558,284.396759 279.817871,284.767639 
	C279.665283,284.809998 279.346558,284.687073 278.966675,284.299744 
z"/>
<path fill="#DABA70" opacity="1.000000" stroke="none" 
	d="
M362.718994,417.895569 
	C362.832031,418.054443 362.692505,418.347626 362.329346,418.794067 
	C362.285278,418.669739 362.405518,418.363953 362.718994,417.895569 
z"/>
<path fill="#DABA70" opacity="1.000000" stroke="none" 
	d="
M360.673645,420.817200 
	C360.730316,420.969727 360.563416,421.292053 360.204590,421.809021 
	C360.158478,421.664795 360.304230,421.325928 360.673645,420.817200 
z"/>
<path fill="#DABA70" opacity="1.000000" stroke="none" 
	d="
M358.677368,423.842804 
	C358.735016,423.996643 358.566010,424.311035 358.204803,424.813568 
	C358.158630,424.668915 358.304626,424.336151 358.677368,423.842804 
z"/>
<path fill="#EFD891" opacity="1.000000" stroke="none" 
	d="
M524.015625,439.439362 
	C529.347656,442.766724 534.604919,446.655579 540.034485,450.286682 
	C541.878479,451.519897 544.157288,452.102997 546.618652,452.992188 
	C547.684326,464.829803 544.669495,464.736389 536.616272,459.862030 
	C533.953125,458.250153 531.028198,457.040649 528.478394,455.277802 
	C522.908630,451.427124 524.010498,445.465820 524.015625,439.439362 
z"/>
</svg>